<svg aria-hidden="true" style="position: absolute; width: 0; height: 0; overflow: hidden;" version="1.1" xmlns="http://www.w3.org/2000/svg" xmlns:xlink="http://www.w3.org/1999/xlink">
<defs>
<symbol id="icon-arrow-right" viewBox="0 0 32 32">
<path d="M11.812 14.991h7.882v1.885h-7.882z"></path>
<path d="M20.498 15.677l-1.326 1.409-3.698-3.883 1.326-1.409z"></path>
<path d="M20.622 15.974c0 0.225-0.176 0.408-0.394 0.408s-0.394-0.183-0.394-0.408c0-0.225 0.176-0.408 0.394-0.408s0.394 0.183 0.394 0.408z"></path>
<path d="M19.151 14.881l1.344 1.389-3.662 3.921-1.344-1.389z"></path>
</symbol>

<symbol id="icon-corner" viewBox="0 0 19 32">
<path d="M2.379 31.871c-0.771-0.207-1.618-0.905-1.97-1.622-0.437-0.891-0.451-1.913-0.038-2.777 0.206-0.432 1.138-1.399 6.776-7.031 2.411-2.408 4.383-4.401 4.383-4.428s-2.457-2.505-5.46-5.504l-5.46-5.454-0.193-0.405c-0.355-0.745-0.436-1.455-0.247-2.192 0.15-0.585 0.414-1.046 0.851-1.483 0.628-0.628 1.283-0.9 2.16-0.899 0.886 0.002 1.376 0.175 2.006 0.709 0.438 0.371 11.997 11.896 12.879 12.841 0.897 0.961 1.071 1.354 1.071 2.425 0 0.656-0.067 0.931-0.375 1.534-0.153 0.299-0.68 0.841-5.489 5.639-7.033 7.017-8.263 8.219-8.583 8.392-0.581 0.313-1.658 0.433-2.31 0.258z"></path>
</symbol>
<symbol id="icon-facebook" viewBox="0 0 32 32">
<path d="M16.003 32.005c8.838 0 16.003-7.165 16.003-16.003s-7.165-16.003-16.003-16.003c-8.838 0-16.003 7.165-16.003 16.003s7.165 16.003 16.003 16.003z"></path>
<path fill="#fff" style="fill: var(--color4, #fff)" d="M20.449 15.984h-2.611v9.62h-3.955v-9.62h-1.881v-3.381h1.881v-2.188c0-1.565 0.739-4.014 3.99-4.014l2.93 0.012v3.282h-2.126c-0.349 0-0.839 0.175-0.839 0.922v1.99h2.956l-0.346 3.378z"></path>
</symbol>
<symbol id="icon-github" viewBox="0 0 32 32">
<path d="M32.005 16.003c0 8.838-7.165 16.003-16.003 16.003s-16.003-7.165-16.003-16.003c0-8.838 7.165-16.003 16.003-16.003s16.003 7.165 16.003 16.003z"></path>
<path fill="#fff" style="fill: var(--color4, #fff)" d="M16.003 6.589c-5.17 0-9.413 4.243-9.413 9.413 0 4.412 3.096 8.42 7.207 9.413v-3.114c-0.407 0.089-0.782 0.092-1.197-0.030-0.556-0.164-1.008-0.535-1.344-1.1-0.214-0.361-0.593-0.752-0.988-0.723l-0.097-1.099c0.855-0.073 1.595 0.521 2.034 1.259 0.195 0.328 0.42 0.52 0.708 0.605 0.279 0.082 0.578 0.043 0.926-0.080 0.088-0.698 0.407-0.959 0.649-1.327v-0.001c-2.452-0.366-3.429-1.666-3.817-2.693-0.514-1.363-0.238-3.066 0.671-4.143 0.018-0.021 0.050-0.076 0.037-0.114-0.417-1.259 0.091-2.3 0.11-2.41 0.481 0.142 0.559-0.143 2.089 0.786l0.264 0.159c0.111 0.066 0.076 0.028 0.186 0.020 0.639-0.174 1.312-0.269 1.976-0.278 0.669 0.009 1.338 0.104 2.003 0.285l0.086 0.009c-0.007-0.001 0.023-0.005 0.075-0.036 1.911-1.158 1.842-0.779 2.355-0.946 0.019 0.111 0.52 1.169 0.107 2.412-0.056 0.171 1.657 1.739 0.708 4.256-0.388 1.027-1.365 2.328-3.817 2.694v0.001c0.314 0.479 0.692 0.734 0.69 1.722v3.888c4.111-0.993 7.207-5.001 7.207-9.413 0-5.17-4.243-9.413-9.413-9.413z"></path>
</symbol>
<symbol id="icon-home" viewBox="0 0 35 32">
<path d="M34.256 15.629c0.599-0.659 0.541-1.669-0.129-2.256l-14.773-12.927c-0.671-0.586-1.746-0.574-2.402 0.028l-14.824 13.588c-0.656 0.602-0.689 1.611-0.071 2.252l0.372 0.387c0.617 0.642 1.613 0.718 2.225 0.17l1.108-0.992v14.524c0 0.891 0.722 1.613 1.613 1.613h5.778c0.89 0 1.613-0.721 1.613-1.613v-10.161h7.37v10.161c-0.013 0.89 0.624 1.612 1.515 1.612h6.123c0.89 0 1.613-0.722 1.613-1.613v-14.319s0.306 0.268 0.684 0.6c0.377 0.331 1.168 0.066 1.767-0.594l0.42-0.462z"></path>
</symbol>
<symbol id="icon-logo" viewBox="0 0 127 32">
<path fill="#fff" style="fill: var(--color4, #fff)" d="M32.076 15.999c0 8.838-7.164 16.002-16.002 16.002s-16.002-7.164-16.002-16.002c0-8.838 7.164-16.002 16.002-16.002s16.002 7.164 16.002 16.002z"></path>
<path d="M14.976 31.935c-0.651-0.044-1.567-0.167-2.136-0.287l-0.269-0.057v-2.593h7.583l-0.030 2.454-0.283 0.075c-0.596 0.159-1.903 0.352-2.771 0.409-0.987 0.065-1.093 0.065-2.094-0.002z"></path>
<path d="M15.457 12.025c-1.766-0.216-3.27-0.925-4.521-2.133l-0.543-0.524 0.531-0.511c1.104-1.062 2.377-1.734 3.853-2.035 2.14-0.436 4.394 0.069 6.142 1.376 0.456 0.341 1.213 1.057 1.213 1.148 0 0.095-0.944 0.982-1.358 1.276-0.853 0.606-1.947 1.077-2.988 1.289-0.652 0.133-1.74 0.185-2.33 0.113z"></path>
<path d="M8.573 14.587c0.036-1.077 0.122-1.704 0.331-2.418 0.128-0.437 0.49-1.306 0.637-1.53l0.094-0.143 0.492 0.461c0.532 0.499 1.43 1.128 2.065 1.448 3.444 1.735 7.578 1.116 10.34-1.548l0.429-0.414 0.258 0.524c0.57 1.161 0.779 2.144 0.779 3.678l0 1.004h-15.461z"></path>
<path d="M18.724 23.94c-0.317-0.113-0.479-0.237-0.651-0.497l-0.155-0.235-0.033-3.769-10.498-0.030-0.233-0.154c-0.348-0.23-0.551-0.613-0.548-1.034 0.003-0.507 0.229-0.882 0.676-1.123l0.226-0.122h8.825c4.854 0 8.916 0.019 9.028 0.043s0.312 0.137 0.446 0.251c0.703 0.602 0.578 1.624-0.253 2.072-0.22 0.119-0.29 0.123-2.701 0.14l-2.475 0.017v1.684c0 1.975-0.025 2.122-0.418 2.485-0.364 0.335-0.792 0.429-1.236 0.27z"></path>
<path d="M11.525 27.645c-1.067-0.031-1.078-0.033-1.447-0.214-0.685-0.335-1.145-0.86-1.36-1.549-0.098-0.315-0.107-0.548-0.107-2.744v-2.399h7.92l0.001 0.976c0.001 1.247 0.060 1.661 0.308 2.168 0.943 1.927 3.61 1.916 4.57-0.020l0.24-0.485 0.038-2.583h2.375l-0.021 2.362c-0.020 2.215-0.029 2.384-0.14 2.715-0.336 1.003-1.132 1.649-2.18 1.77-0.489 0.056-8.304 0.057-10.198 0.001z"></path>
<path d="M10.789 31.091c-0.062-0.027-0.38-0.155-0.707-0.283-1.228-0.483-2.607-1.276-3.819-2.199-0.669-0.509-2.113-1.929-2.653-2.609-2.109-2.652-3.329-5.865-3.475-9.15-0.096-2.161 0.147-3.993 0.782-5.898 1.913-5.736 6.827-9.842 12.898-10.778 0.82-0.126 2.73-0.172 3.677-0.089 2.021 0.179 3.785 0.68 5.685 1.617 4.71 2.321 7.912 6.757 8.728 12.092 0.152 0.996 0.134 3.599-0.032 4.614-0.845 5.153-3.882 9.382-8.459 11.778-0.535 0.28-1.827 0.848-1.93 0.848-0.017 0-0.032-0.456-0.032-1.014v-1.014l0.325-0.038c1.439-0.166 2.589-0.963 3.18-2.201 0.344-0.721 0.357-0.845 0.383-3.548l0.023-2.468 0.208-0.034c0.312-0.051 0.854-0.331 1.149-0.593 1.117-0.993 1.124-2.776 0.015-3.798-0.283-0.26-0.843-0.549-1.168-0.603l-0.212-0.035-0.001-0.771c-0.003-1.855-0.289-3.193-0.971-4.556-1.267-2.53-3.496-4.239-6.325-4.85-0.509-0.11-0.76-0.128-1.754-0.128s-1.245 0.018-1.754 0.128c-0.857 0.185-1.518 0.417-2.291 0.802-2.374 1.183-4.070 3.303-4.725 5.911-0.199 0.791-0.281 1.564-0.281 2.635 0 0.758-0.011 0.852-0.099 0.88-0.374 0.121-0.856 0.413-1.121 0.678-1.24 1.24-0.902 3.28 0.674 4.069 0.215 0.108 0.424 0.196 0.464 0.196 0.058 0 0.078 0.52 0.097 2.532 0.027 2.803 0.029 2.822 0.416 3.614 0.584 1.192 1.678 1.951 3.090 2.142l0.269 0.036v1.071c0 1.127 0 1.126-0.255 1.014z"></path>
<path d="M45.24 22.426c-0.184-0.116-0.198-0.492-0.198-5.259v-5.134l0.298-0.235c0.634-0.499 2.586-0.835 3.361-0.58 0.78 0.258 0.753 0.051 0.753 5.804v5.182l-0.311 0.12c-0.451 0.174-3.656 0.256-3.903 0.101z"></path>
<path d="M54.218 22.473c-0.872-0.234-1.638-0.684-2.21-1.295-0.968-1.035-1.342-2.198-1.343-4.183-0.001-1.488 0.128-2.136 0.629-3.153 0.866-1.758 2.856-2.839 5.232-2.841 3.186-0.003 4.055 0.848 3.203 3.138-0.315 0.848-0.422 0.878-1.915 0.534-1.364-0.314-1.749-0.297-2.117 0.095-0.423 0.45-0.585 1.028-0.585 2.082 0.001 1.212 0.147 1.781 0.567 2.201 0.411 0.411 0.68 0.407 2.2-0.028l1.216-0.348 0.259 0.243c0.48 0.451 0.806 2.278 0.507 2.837-0.178 0.332-0.867 0.632-1.772 0.772-1.121 0.173-3.13 0.146-3.87-0.053z"></path>
<path d="M61.473 22.363l-0.251-0.176v-5.134c0-2.865 0.046-5.256 0.104-5.409 0.057-0.151 0.223-0.315 0.368-0.364 0.44-0.149 7.548-0.207 7.722-0.063 0.083 0.069 0.182 0.367 0.222 0.663 0.087 0.655-0.102 2.255-0.293 2.486-0.114 0.138-0.352 0.155-1.33 0.095-0.655-0.040-1.458-0.103-1.785-0.14l-0.594-0.067v1.158h3.384l0.077 0.41c0.113 0.604-0.028 1.946-0.238 2.268-0.181 0.276-0.2 0.279-1.674 0.253l-1.491-0.027-0.069 1.061 4.067-0.153 0.081 0.538c0.096 0.64-0.021 2.112-0.198 2.501l-0.126 0.277h-3.86c-3.311 0-3.896-0.025-4.112-0.176z"></path>
<path d="M54.218 22.473c-0.872-0.234-1.638-0.684-2.21-1.295-0.968-1.035-1.342-2.198-1.343-4.183-0.001-1.488 0.128-2.136 0.629-3.153 0.866-1.759 2.86-2.842 5.232-2.84 3.207 0.002 4.059 0.836 3.203 3.136-0.315 0.848-0.422 0.878-1.915 0.534-1.432-0.33-1.778-0.301-2.186 0.185-0.379 0.451-0.515 1-0.515 2.081 0 1.121 0.137 1.636 0.556 2.084 0.413 0.442 0.668 0.443 2.172 0.010 0.646-0.186 1.259-0.311 1.361-0.279 0.525 0.166 1.004 2.352 0.658 3-0.178 0.332-0.867 0.632-1.772 0.772-1.121 0.173-3.13 0.146-3.87-0.053z"></path>
<path d="M54.218 22.473c-0.872-0.234-1.638-0.684-2.21-1.295-0.968-1.035-1.342-2.198-1.343-4.183-0.001-1.488 0.128-2.136 0.629-3.153 0.456-0.927 1.161-1.625 2.137-2.117 1.192-0.6 2.057-0.764 3.662-0.692 2.266 0.102 2.955 0.515 2.926 1.755-0.018 0.756-0.42 1.895-0.726 2.059-0.158 0.085-0.551 0.038-1.478-0.176-1.432-0.33-1.778-0.301-2.186 0.185-0.378 0.449-0.515 1-0.516 2.068-0.001 1.072 0.163 1.676 0.575 2.117 0.393 0.42 0.665 0.419 2.154-0.009 0.646-0.186 1.259-0.311 1.361-0.279 0.525 0.166 1.004 2.352 0.658 3-0.169 0.317-0.849 0.624-1.703 0.77-1.032 0.177-3.195 0.149-3.939-0.051z"></path>
<path d="M74.464 22.471c-1.907-0.512-3.020-1.741-3.446-3.803-0.343-1.663-0.166-3.4 0.49-4.802 0.895-1.913 3.004-2.958 5.722-2.836 1.523 0.068 2.222 0.239 2.662 0.65 0.291 0.272 0.336 0.395 0.336 0.912 0 0.792-0.303 1.84-0.618 2.136l-0.253 0.238-1.389-0.307c-1.57-0.348-1.75-0.316-2.229 0.395-0.678 1.006-0.572 3.235 0.189 3.996 0.41 0.41 0.649 0.407 2.182-0.027 1.176-0.333 1.24-0.34 1.449-0.151 0.276 0.25 0.668 1.504 0.668 2.137 0 0.537-0.279 0.983-0.774 1.238-0.779 0.401-3.827 0.538-4.991 0.225z"></path>
<path d="M81.728 22.431l-0.255-0.111v-5.364c0-4.154 0.032-5.39 0.141-5.48 0.409-0.335 1.209-0.416 4.158-0.418 2.808-0.002 3.050 0.014 3.818 0.255 0.943 0.296 1.502 0.773 1.878 1.599 0.193 0.424 0.235 0.738 0.232 1.707-0.005 1.455-0.264 2.229-0.997 2.983l-0.487 0.501 0.345 0.549c0.687 1.094 1.434 2.68 1.434 3.044 0 0.324-0.055 0.388-0.481 0.562-0.642 0.262-3.51 0.368-3.927 0.145-0.228-0.122-0.375-0.456-0.825-1.873-0.735-2.317-0.878-2.322-0.878-0.033v1.692l-0.424 0.122c-0.583 0.167-3.416 0.259-3.734 0.12zM86.972 16.078c0.162-0.179 0.225-0.45 0.254-1.103 0.034-0.751 0.007-0.906-0.206-1.176-0.193-0.245-0.339-0.311-0.689-0.311h-0.444v2.829h0.435c0.298 0 0.503-0.075 0.65-0.238z"></path>
<path d="M93.153 22.363l-0.251-0.176v-5.233c0-4.010 0.033-5.278 0.141-5.423 0.244-0.328 1.257-0.419 4.669-0.419 2.512 0 3.335 0.034 3.42 0.141 0.284 0.359 0.205 2.735-0.102 3.105-0.122 0.147-0.338 0.163-1.336 0.102-0.655-0.040-1.458-0.103-1.785-0.14l-0.594-0.067v1.158h3.384l0.077 0.41c0.113 0.604-0.028 1.946-0.238 2.268-0.181 0.276-0.2 0.279-1.674 0.253l-1.491-0.027-0.069 1.061 4.067-0.153 0.081 0.54c0.094 0.626-0.003 1.895-0.185 2.416l-0.125 0.359h-3.867c-3.317 0-3.903-0.025-4.119-0.176z"></path>
<path d="M103.347 22.421c-0.597-0.118-1.168-0.41-1.168-0.597 0-0.209 0.436-1.692 1.767-6.017 0.651-2.116 1.21-3.933 1.242-4.038 0.085-0.285 0.62-0.413 2.279-0.544 1.448-0.115 2.766-0.029 2.983 0.195 0.047 0.048 0.62 1.895 1.273 4.105 1.763 5.962 1.871 6.35 1.81 6.509-0.123 0.322-0.766 0.449-2.246 0.446-2.149-0.005-2.546-0.2-2.546-1.248v-0.389h-1.697v0.484c0 0.614-0.233 0.947-0.767 1.095-0.489 0.136-2.243 0.136-2.93 0zM108.359 17.589c-0.032-0.109-0.093-0.771-0.135-1.471-0.069-1.123-0.102-1.273-0.282-1.273-0.259 0-0.3 0.155-0.389 1.471-0.040 0.591-0.098 1.164-0.129 1.273-0.048 0.168 0.023 0.198 0.468 0.198s0.516-0.030 0.467-0.198z"></path>
<path d="M114.766 22.429l-0.255-0.109v-10.615l0.311-0.124c0.631-0.252 1.471-0.377 2.574-0.385 1.281-0.009 1.883 0.187 2.138 0.695 0.082 0.163 0.363 1.164 0.625 2.225 0.457 1.848 0.611 2.314 0.729 2.197 0.029-0.029 0.299-1.020 0.6-2.201l0.547-2.147 0.431-0.24c0.237-0.132 0.721-0.308 1.075-0.391 0.88-0.206 2.683-0.182 3.221 0.043l0.421 0.176v10.638l-0.481 0.136c-0.264 0.075-1.179 0.14-2.032 0.146-1.252 0.008-1.584-0.024-1.725-0.164-0.152-0.152-0.16-0.403-0.062-1.98 0.062-0.994 0.142-2.028 0.178-2.3 0.050-0.376 0.031-0.482-0.081-0.444-0.093 0.031-0.298 0.834-0.555 2.165-0.224 1.164-0.47 2.178-0.546 2.254-0.080 0.080-0.543 0.155-1.092 0.178-0.912 0.038-0.958 0.028-1.063-0.226-0.060-0.146-0.296-1.183-0.523-2.303s-0.434-2.058-0.459-2.084c-0.157-0.161-0.173 0.277-0.060 1.659 0.070 0.86 0.127 1.879 0.127 2.264 0 0.609-0.033 0.717-0.255 0.838-0.317 0.173-3.43 0.254-3.79 0.099z"></path>
</symbol>
<symbol id="icon-menu-close" viewBox="0 0 32 32">
<path stroke="#fff" style="stroke: var(--color1, #fff)" stroke-linejoin="miter" stroke-linecap="butt" stroke-miterlimit="4" stroke-width="2" d="M3.491 1.914l26.975 28.013"></path>
<path d="M3.38 1.17l26.923 27.941-1.441 1.388-26.923-27.941z"></path>
<path d="M30.772 3.063l-27.941 26.923-1.388-1.441 27.941-26.923z"></path>
</symbol>
<symbol id="icon-menu-open" viewBox="0 0 46 32">
<path d="M0.161 1.289h45.559v2.093h-45.559zM0.161 14.973h45.559v2.093h-45.559z"></path>
<path d="M0.16 28.64h45.559v2.093h-45.559z"></path>
</symbol>
<symbol id="icon-quotes" viewBox="0 0 43 32">
<path style="fill: var(--color9, #e1e1e1)" d="M32.019-0c1.929 0 3.751 0.52 5.465 1.561s3.108 2.537 4.179 4.489c1.029 1.952 1.543 4.25 1.543 6.895s-0.643 5.226-1.929 7.741c-0.429 0.911-1.2 2.082-2.315 3.513-1.157 1.431-2.229 2.667-3.215 3.708l-4.051 4.098-2.893-4.814c2.015-1.258 3.793-2.819 5.336-4.684 1.543-1.821 2.315-3.491 2.315-5.009 0-0.781-0.171-1.409-0.514-1.886-1.5 1.084-3.172 1.626-5.015 1.626-1.329 0-2.593-0.412-3.793-1.236-1.243-0.781-2.229-1.821-2.958-3.122-0.772-1.258-1.157-2.559-1.157-3.903 0-1.518 0.45-2.971 1.35-4.358 0.857-1.388 1.993-2.515 3.408-3.383 1.372-0.824 2.786-1.236 4.244-1.236zM8.937-0c1.929 0 3.751 0.52 5.465 1.561s3.108 2.537 4.179 4.489c1.029 1.952 1.543 4.25 1.543 6.895 0 1.865-0.236 3.534-0.707 5.009-0.471 1.518-1.286 3.101-2.443 4.749-1.114 1.561-2.165 2.862-3.151 3.903-0.986 1.084-2.7 2.884-5.144 5.399l-2.893-4.814c2.015-1.258 3.793-2.819 5.337-4.684 1.543-1.821 2.315-3.491 2.315-5.009 0-0.781-0.171-1.409-0.514-1.886-1.5 1.084-3.172 1.626-5.015 1.626-1.329 0-2.593-0.412-3.793-1.236-1.243-0.781-2.229-1.821-2.958-3.122-0.772-1.258-1.157-2.559-1.157-3.903 0-1.518 0.429-2.971 1.286-4.358s1.993-2.515 3.408-3.383c1.372-0.824 2.786-1.236 4.244-1.236z"></path>
</symbol>
<symbol id="icon-telegram" viewBox="0 0 32 32">
<path d="M32.005 16.003c0 8.838-7.165 16.003-16.003 16.003s-16.003-7.165-16.003-16.003c0-8.838 7.165-16.003 16.003-16.003s16.003 7.165 16.003 16.003z"></path>
<path fill="#fff" style="fill: var(--color4, #fff)" d="M12.869 18.378l-0.318 4.17c0.454 0 0.651-0.182 0.887-0.401l2.131-1.901 4.415 3.018c0.81 0.421 1.38 0.199 1.599-0.695l2.898-12.675 0.001-0.001c0.257-1.117-0.433-1.554-1.222-1.28l-17.035 6.087c-1.163 0.421-1.145 1.026-0.198 1.3l4.355 1.264 10.116-5.908c0.476-0.294 0.909-0.132 0.553 0.163l-8.183 6.858z"></path>
</symbol>
<symbol id="icon-apples" viewBox="0 0 32 32">
<path d="M4.766 31.756c-0.119-0.034-0.234-0.118-0.255-0.186s-0.113-0.164-0.204-0.212c-0.22-0.118-0.239-0.183-0.312-1.071-0.074-0.899-0.161-1.29-0.384-1.723-0.133-0.259-0.175-0.479-0.225-1.186-0.095-1.349-0.202-1.863-0.442-2.128-0.073-0.081-0.131-0.45-0.204-1.291-0.107-1.239-0.154-1.463-0.41-1.958-0.128-0.247-0.171-0.486-0.229-1.254-0.101-1.337-0.17-1.708-0.378-2.007-0.164-0.237-0.186-0.353-0.271-1.43-0.101-1.279-0.129-1.415-0.388-1.919-0.147-0.286-0.186-0.49-0.247-1.299-0.092-1.208-0.167-1.603-0.371-1.951-0.186-0.317-0.285-0.942-0.189-1.191 0.036-0.093 0.14-0.246 0.233-0.339 0.271-0.274 0.311-0.408 0.354-1.18 0.039-0.703 0.108-0.989 0.238-0.989 0.069 0 0.369-0.619 0.436-0.9 0.030-0.125 0.123-0.226 0.278-0.3 0.136-0.065 0.278-0.206 0.34-0.337 0.059-0.124 0.147-0.226 0.196-0.226 0.143 0 0.74-0.336 0.902-0.507 0.085-0.089 0.272-0.179 0.434-0.206 0.428-0.072 0.735-0.222 0.815-0.396 0.089-0.195-0.018-0.634-0.208-0.853-0.372-0.429-0.521-3.129-0.221-4.004l0.128-0.373 0.363-0.063c0.321-0.055 0.371-0.048 0.435 0.064 0.071 0.125 0.256 0.317 0.478 0.498 0.072 0.059 0.1 0.148 0.076 0.244-0.142 0.567 0.019 2.655 0.228 2.948 0.243 0.341 0.327 0.38 0.496 0.229 0.083-0.074 0.293-0.187 0.468-0.251 0.217-0.080 0.359-0.186 0.447-0.336 0.090-0.152 0.215-0.245 0.405-0.302 0.151-0.045 0.377-0.177 0.5-0.292s0.294-0.236 0.378-0.268c0.262-0.1 1.517-0.143 2.152-0.075 0.552 0.060 0.621 0.084 0.78 0.27 0.095 0.112 0.269 0.251 0.385 0.309 0.246 0.122 0.932 0.77 0.994 0.938 0.103 0.281 0.332 0.335 1.679 0.396 0.785 0.035 1.362 0.034 1.462-0.004 0.19-0.072 0.274-0.257 0.339-0.747 0.026-0.2 0.099-0.397 0.17-0.463 0.166-0.155 0.309-0.512 0.368-0.923 0.059-0.41 0.123-0.546 0.384-0.822 0.11-0.117 0.241-0.33 0.291-0.474 0.064-0.187 0.165-0.304 0.351-0.408 0.143-0.080 0.29-0.226 0.325-0.324 0.073-0.201 0.235-0.262 0.614-0.23 0.221 0.018 0.269 0.052 0.324 0.225 0.036 0.112 0.121 0.266 0.19 0.342 0.121 0.133 0.121 0.15 0.006 0.441-0.189 0.478-0.393 0.831-0.584 1.010-0.107 0.1-0.23 0.343-0.311 0.616-0.074 0.248-0.191 0.502-0.26 0.565-0.169 0.153-0.31 0.602-0.256 0.816 0.082 0.329 0.315 0.38 1.75 0.384 1.528 0.005 1.882 0.050 2.108 0.267 0.090 0.087 0.341 0.252 0.558 0.367 0.332 0.177 0.427 0.272 0.61 0.611 0.119 0.221 0.283 0.456 0.366 0.522 0.238 0.192 0.282 0.473 0.326 2.051 0.047 1.728 0.048 1.729 0.732 1.93l0.407 0.12 0.054 0.431c0.077 0.623-0.042 1.781-0.208 2.018-0.248 0.353-0.319 0.708-0.421 2.104-0.058 0.785-0.092 0.953-0.271 1.326-0.21 0.436-0.257 0.703-0.399 2.283-0.050 0.554-0.102 0.779-0.235 1.017-0.094 0.168-0.205 0.498-0.248 0.735-0.092 0.512-0.010 0.694 0.392 0.875 0.138 0.062 0.33 0.184 0.427 0.271l0.176 0.158 0.243-0.251c0.159-0.164 0.271-0.363 0.321-0.576 0.043-0.179 0.123-0.362 0.178-0.408 0.174-0.145 0.277-0.414 0.398-1.046 0.105-0.547 0.139-0.626 0.311-0.725 0.11-0.063 0.24-0.228 0.303-0.385 0.067-0.168 0.199-0.329 0.34-0.416 0.127-0.078 0.23-0.185 0.23-0.236 0-0.145 0.229-0.234 0.597-0.234 0.383 0 0.454 0.060 0.576 0.48 0.117 0.403-0.064 0.946-0.427 1.281-0.237 0.219-0.407 0.59-0.408 0.89-0 0.060-0.092 0.224-0.204 0.365-0.238 0.299-0.248 0.394-0.077 0.713l0.127 0.236 0.467-0.034c0.257-0.019 0.839-0.031 1.295-0.028 0.8 0.005 0.834 0.012 1.006 0.183 0.163 0.163 0.518 0.311 0.998 0.418 0.127 0.028 0.225 0.118 0.3 0.275 0.062 0.13 0.205 0.278 0.323 0.334 0.187 0.089 0.226 0.16 0.342 0.624 0.073 0.294 0.2 0.607 0.29 0.713 0.232 0.276 0.287 0.545 0.283 1.38-0.005 0.847-0.075 1.381-0.192 1.453-0.126 0.078-0.325 0.67-0.417 1.244-0.071 0.441-0.114 0.549-0.263 0.655-0.098 0.070-0.251 0.301-0.339 0.514-0.099 0.238-0.273 0.49-0.453 0.656-0.161 0.149-0.311 0.328-0.334 0.4s-0.213 0.211-0.423 0.31c-0.21 0.099-0.475 0.28-0.589 0.402-0.192 0.206-0.254 0.227-0.884 0.303-0.373 0.045-1.029 0.072-1.458 0.061-0.924-0.025-1.268-0.026-2.305-0.004-1.011 0.021-2.19-0.137-2.448-0.328-0.105-0.077-0.219-0.141-0.255-0.141s-0.243 0.2-0.462 0.444c-0.308 0.344-0.458 0.458-0.667 0.507-0.357 0.083-15.249 0.074-15.537-0.009zM19.156 30.122c0.099-0.045 0.3-0.266 0.447-0.492 0.305-0.466 0.309-0.697 0.023-1.121-0.109-0.162-0.203-0.479-0.295-0.998-0.074-0.419-0.214-0.933-0.31-1.144-0.151-0.329-0.175-0.476-0.175-1.049 0-0.534 0.026-0.71 0.13-0.89 0.12-0.207 0.3-0.754 0.48-1.461 0.055-0.217 0.113-0.298 0.237-0.329 0.107-0.027 0.214-0.145 0.309-0.34 0.103-0.212 0.186-0.298 0.287-0.298 0.222 0 0.704-0.26 0.826-0.445 0.060-0.092 0.155-0.495 0.21-0.895s0.133-0.83 0.174-0.956c0.059-0.181 0.055-0.241-0.018-0.287-0.122-0.077-0.718-0.077-0.766-0-0.021 0.033-0.198 0.143-0.394 0.244s-0.454 0.287-0.573 0.414c-0.119 0.127-0.28 0.231-0.358 0.231-0.219 0-0.62 0.189-0.816 0.386-0.136 0.136-0.321 0.207-0.775 0.299-0.438 0.089-0.645 0.166-0.776 0.292-0.217 0.208-0.557 0.281-1.769 0.378-0.503 0.041-1.202 0.122-1.552 0.181-0.722 0.122-1.225 0.104-2.889-0.103-0.597-0.074-1.338-0.156-1.648-0.181-0.439-0.036-0.603-0.080-0.746-0.198-0.286-0.238-0.442-0.301-1.006-0.409-0.412-0.079-0.57-0.144-0.735-0.304-0.115-0.112-0.361-0.254-0.546-0.317s-0.467-0.228-0.626-0.367c-0.159-0.139-0.373-0.274-0.475-0.299s-0.293-0.17-0.426-0.323c-0.193-0.222-0.287-0.278-0.468-0.278-0.366 0-0.477 0.201-0.476 0.861 0.001 1.006 0.115 1.732 0.343 2.179 0.175 0.344 0.217 0.528 0.272 1.186 0.102 1.224 0.19 1.834 0.291 2.026 0.051 0.097 0.141 0.269 0.2 0.381 0.068 0.13 0.132 0.551 0.179 1.169 0.088 1.172 0.172 1.605 0.372 1.916 0.084 0.131 0.174 0.359 0.2 0.508s0.079 0.37 0.117 0.491c0.143 0.452-0.305 0.424 6.851 0.424 4.933 0 6.533-0.020 6.67-0.082zM25.119 29.681c0.507-0.020 0.989-0.005 1.133 0.035 0.18 0.050 0.449 0.043 0.954-0.023 0.817-0.107 1-0.176 1.152-0.435 0.061-0.104 0.201-0.226 0.31-0.271 0.119-0.049 0.233-0.168 0.283-0.297 0.046-0.118 0.197-0.322 0.336-0.453 0.217-0.206 0.264-0.305 0.34-0.731 0.059-0.332 0.139-0.548 0.244-0.661 0.223-0.24 0.305-0.622 0.312-1.446 0.006-0.724-0.070-1.062-0.295-1.3-0.052-0.055-0.149-0.206-0.217-0.336-0.119-0.228-0.507-0.556-0.859-0.725-0.094-0.045-0.423-0.083-0.733-0.085-0.434-0.002-0.623 0.028-0.831 0.134-0.148 0.075-0.268 0.162-0.268 0.193s-0.154 0.139-0.342 0.242c-0.206 0.112-0.408 0.291-0.509 0.45-0.103 0.164-0.238 0.281-0.353 0.308-0.103 0.024-0.258 0.109-0.344 0.188-0.149 0.135-0.163 0.137-0.244 0.026-0.047-0.065-0.197-0.164-0.333-0.221-0.15-0.063-0.314-0.21-0.418-0.375-0.111-0.177-0.264-0.309-0.437-0.378-0.146-0.058-0.313-0.178-0.371-0.267-0.138-0.21-0.49-0.302-1.157-0.302-0.429-0-0.585 0.028-0.746 0.136-0.112 0.075-0.304 0.2-0.426 0.279-0.221 0.142-0.421 0.438-0.421 0.623 0 0.053-0.090 0.208-0.199 0.346-0.142 0.179-0.213 0.36-0.247 0.635-0.062 0.496 0.058 1.272 0.234 1.51 0.075 0.102 0.188 0.44 0.25 0.752 0.122 0.608 0.262 0.919 0.442 0.976 0.062 0.020 0.165 0.173 0.229 0.34 0.084 0.221 0.181 0.338 0.352 0.425 0.129 0.066 0.272 0.195 0.318 0.287s0.158 0.202 0.25 0.246c0.217 0.103 1.415 0.287 1.591 0.244 0.075-0.018 0.533-0.048 1.019-0.067zM13.525 20.409c0.408-0.060 0.615-0.11 0.858-0.204 0.136-0.053 0.637-0.13 1.112-0.171 0.9-0.077 1.211-0.163 1.427-0.391 0.071-0.075 0.309-0.174 0.535-0.222 0.474-0.101 0.829-0.264 1.008-0.461 0.070-0.077 0.276-0.19 0.459-0.25 0.239-0.079 0.361-0.166 0.435-0.309 0.063-0.121 0.207-0.241 0.369-0.305 0.171-0.069 0.297-0.176 0.353-0.303 0.048-0.108 0.123-0.197 0.167-0.197 0.122 0 0.497-0.338 0.497-0.449 0-0.054 0.106-0.161 0.236-0.237 0.166-0.098 0.26-0.218 0.316-0.404 0.053-0.175 0.15-0.306 0.289-0.388 0.168-0.099 0.241-0.222 0.368-0.615 0.087-0.27 0.202-0.508 0.257-0.529 0.167-0.064 0.284-0.376 0.366-0.974 0.043-0.314 0.149-0.727 0.236-0.917 0.254-0.556 0.246-0.635-0.090-0.873l-0.294-0.208-9.503-0.020c-5.226-0.011-9.659-0.002-9.85 0.021-0.508 0.060-0.636 0.207-0.634 0.731 0.002 0.574 0.11 0.998 0.305 1.202 0.109 0.114 0.198 0.338 0.27 0.676 0.113 0.537 0.226 0.767 0.432 0.877 0.070 0.037 0.16 0.199 0.2 0.358 0.045 0.178 0.206 0.447 0.415 0.694 0.188 0.222 0.357 0.452 0.376 0.511s0.123 0.16 0.232 0.224c0.109 0.064 0.296 0.24 0.414 0.39s0.302 0.317 0.407 0.371c0.105 0.054 0.331 0.22 0.503 0.369s0.433 0.303 0.582 0.343c0.152 0.041 0.316 0.143 0.375 0.234 0.131 0.2 0.441 0.347 0.86 0.406 0.19 0.027 0.403 0.114 0.519 0.212 0.3 0.253 0.594 0.348 1.227 0.399 0.823 0.066 1.438 0.167 1.542 0.253 0.201 0.167 1.701 0.264 2.424 0.158zM12.081 10.32c0.175-0.078 0.402-0.345 0.627-0.739 0.116-0.202 0.159-1.025 0.075-1.411-0.029-0.13-0.11-0.301-0.182-0.379-0.086-0.093-0.164-0.355-0.231-0.768-0.104-0.646-0.21-0.929-0.407-1.092-0.062-0.052-0.182-0.25-0.267-0.441-0.107-0.241-0.228-0.391-0.4-0.492-0.136-0.080-0.281-0.221-0.324-0.314-0.123-0.27-0.444-0.378-1.119-0.378-0.33 0-0.719 0.033-0.864 0.074-0.336 0.093-1.209 0.832-1.355 1.146-0.061 0.13-0.139 0.503-0.175 0.827-0.128 1.168-0.228 1.228-1.934 1.165-1.092-0.041-1.289-0.032-1.555 0.070-0.168 0.064-0.323 0.173-0.345 0.244s-0.153 0.182-0.291 0.25c-0.145 0.071-0.298 0.217-0.362 0.345-0.061 0.122-0.189 0.295-0.284 0.382-0.212 0.196-0.284 0.54-0.188 0.895 0.191 0.711 0.067 0.694 5.159 0.696 3.161 0.001 4.284-0.019 4.421-0.080zM21.612 10.27c0.305-0.186 0.377-0.521 0.369-1.727-0.008-1.179-0.081-1.49-0.401-1.694-0.118-0.075-0.229-0.187-0.246-0.249s-0.117-0.168-0.223-0.237c-0.165-0.108-0.333-0.126-1.215-0.126-1.085 0-1.325 0.061-1.419 0.36-0.022 0.069-0.154 0.186-0.293 0.259-0.152 0.080-0.316 0.247-0.411 0.418-0.122 0.221-0.198 0.286-0.339 0.29-0.1 0.003-0.24 0.028-0.311 0.056-0.073 0.028-0.294 0.005-0.501-0.052-0.313-0.087-0.385-0.138-0.464-0.326-0.060-0.144-0.19-0.272-0.366-0.362-0.15-0.077-0.306-0.211-0.346-0.299-0.097-0.212-0.331-0.31-0.744-0.31-0.288 0-0.372 0.031-0.543 0.202-0.187 0.187-0.199 0.227-0.155 0.525 0.026 0.178 0.102 0.506 0.17 0.73 0.166 0.55 0.256 1.266 0.224 1.785-0.030 0.498 0.060 0.679 0.399 0.804 0.158 0.058 1.109 0.081 3.412 0.080 3.009-0.001 3.205-0.008 3.403-0.128z"></path>
</symbol>
<symbol id="icon-heart" viewBox="0 0 28 32">
<path opacity="0.988235" d="M11.698 31.757l-0.108-0.052v-4.225c0-4.848 0.016-4.641-0.377-5.017-0.127-0.121-0.326-0.257-0.442-0.302-0.152-0.058-0.241-0.132-0.316-0.262-0.078-0.136-0.156-0.197-0.312-0.247-0.271-0.086-0.367-0.153-0.475-0.33-0.057-0.094-0.212-0.208-0.438-0.322-0.192-0.097-0.382-0.213-0.422-0.259-0.173-0.2-0.5-0.432-0.67-0.478-0.143-0.039-0.204-0.090-0.272-0.229-0.067-0.136-0.154-0.211-0.367-0.314-0.214-0.104-0.296-0.174-0.348-0.299-0.048-0.114-0.137-0.2-0.296-0.283-0.277-0.145-0.348-0.203-0.457-0.373-0.046-0.073-0.173-0.188-0.28-0.256s-0.297-0.224-0.42-0.347c-0.123-0.123-0.385-0.379-0.582-0.569-0.593-0.571-1.076-1.081-1.234-1.299-0.082-0.113-0.218-0.254-0.303-0.312s-0.21-0.21-0.279-0.339c-0.072-0.135-0.209-0.291-0.325-0.371-0.135-0.093-0.219-0.196-0.258-0.318-0.067-0.208-0.206-0.376-0.393-0.474-0.072-0.038-0.132-0.106-0.133-0.151-0.003-0.202-0.293-0.757-0.481-0.92-0.161-0.141-0.206-0.22-0.263-0.47-0.085-0.369-0.22-0.642-0.379-0.767s-0.195-0.233-0.286-0.843c-0.083-0.561-0.224-1.033-0.369-1.236-0.141-0.198-0.185-0.507-0.219-1.531-0.041-1.257 0.020-1.749 0.28-2.28 0.146-0.297 0.213-0.519 0.283-0.935 0.108-0.639 0.157-0.778 0.312-0.879 0.143-0.094 0.342-0.48 0.385-0.748 0.032-0.203 0.088-0.278 0.33-0.446 0.071-0.049 0.16-0.163 0.197-0.252 0.077-0.183 0.838-0.978 1.034-1.078 0.071-0.036 0.195-0.158 0.275-0.269 0.116-0.161 0.193-0.215 0.371-0.259 0.159-0.040 0.281-0.116 0.42-0.261 0.203-0.212 0.292-0.246 1.236-0.478 0.177-0.043 0.424-0.144 0.55-0.223 0.385-0.244 1.48-0.345 2.526-0.232 0.358 0.039 0.471 0.074 0.719 0.222 0.268 0.16 1.042 0.404 1.281 0.404 0.151 0 0.306 0.096 0.389 0.241 0.054 0.093 0.2 0.198 0.442 0.316 0.24 0.117 0.454 0.27 0.636 0.455 0.151 0.153 0.345 0.316 0.431 0.362s0.182 0.146 0.213 0.223c0.086 0.208 0.777 0.886 1.011 0.993 0.281 0.127 0.847 0.128 1.127 0.001 0.223-0.101 0.876-0.73 0.993-0.956 0.041-0.079 0.166-0.207 0.278-0.286s0.3-0.243 0.418-0.367c0.129-0.135 0.365-0.3 0.591-0.414 0.251-0.126 0.403-0.236 0.457-0.33 0.096-0.167 0.185-0.204 0.751-0.311 0.311-0.058 0.549-0.142 0.849-0.298 0.348-0.18 0.484-0.224 0.815-0.259 0.862-0.092 2.193 0.001 2.38 0.165 0.137 0.121 0.533 0.277 0.888 0.35 0.644 0.133 0.801 0.198 1.019 0.419 0.143 0.145 0.274 0.227 0.424 0.265 0.17 0.043 0.249 0.099 0.364 0.258 0.081 0.112 0.205 0.233 0.275 0.27 0.198 0.103 0.94 0.872 1.012 1.049 0.035 0.086 0.131 0.21 0.213 0.276 0.252 0.201 0.317 0.276 0.317 0.365 0 0.193 0.216 0.648 0.389 0.82 0.197 0.195 0.219 0.258 0.37 1.065 0.069 0.367 0.149 0.62 0.264 0.841 0.231 0.44 0.292 0.971 0.255 2.198-0.032 1.056-0.071 1.309-0.245 1.585-0.142 0.226-0.292 0.782-0.36 1.336-0.053 0.434-0.104 0.563-0.275 0.698-0.142 0.111-0.271 0.367-0.345 0.68-0.089 0.376-0.143 0.479-0.3 0.572-0.152 0.090-0.318 0.39-0.434 0.785-0.047 0.159-0.1 0.232-0.207 0.283-0.158 0.075-0.325 0.299-0.375 0.504-0.020 0.080-0.117 0.188-0.252 0.281-0.132 0.091-0.249 0.22-0.291 0.321-0.039 0.093-0.193 0.293-0.343 0.445s-0.542 0.56-0.871 0.909c-0.33 0.349-0.685 0.712-0.789 0.808s-0.33 0.309-0.502 0.474c-0.172 0.165-0.34 0.3-0.375 0.3s-0.129 0.094-0.21 0.209c-0.090 0.128-0.255 0.27-0.424 0.365-0.186 0.105-0.301 0.208-0.353 0.315-0.055 0.116-0.152 0.197-0.354 0.294-0.205 0.099-0.303 0.181-0.374 0.314-0.076 0.142-0.145 0.196-0.328 0.257-0.153 0.051-0.301 0.15-0.431 0.291-0.113 0.121-0.363 0.299-0.578 0.411-0.254 0.133-0.408 0.247-0.467 0.349-0.049 0.083-0.137 0.172-0.197 0.198-0.389 0.172-0.549 0.274-0.616 0.392-0.042 0.074-0.173 0.18-0.29 0.235-0.299 0.141-0.635 0.455-0.714 0.67-0.055 0.15-0.070 0.94-0.081 4.496l-0.014 4.315-0.101 0.084c-0.093 0.077-0.277 0.084-2.385 0.081-1.537-0.002-2.319-0.020-2.392-0.055zM14.768 30.215c0.245-0.074 0.459-0.223 0.548-0.381 0.044-0.078 0.059-0.818 0.060-2.992l0.002-2.888-0.181-0.181c-0.222-0.222-0.508-0.298-1.12-0.298-0.485 0-0.818 0.067-1.013 0.203-0.283 0.197-0.275 0.107-0.273 3.234 0.001 2.179 0.016 2.884 0.060 2.941 0.111 0.14 0.42 0.346 0.574 0.383 0.268 0.064 1.107 0.051 1.344-0.020zM15.267 21.821c0.111-0.045 0.255-0.153 0.322-0.24s0.18-0.173 0.252-0.191c0.305-0.077 0.713-0.319 0.841-0.499 0.098-0.138 0.199-0.209 0.41-0.286 0.231-0.084 0.299-0.136 0.389-0.295 0.070-0.125 0.154-0.203 0.237-0.223 0.24-0.058 0.508-0.221 0.738-0.45 0.126-0.125 0.321-0.272 0.433-0.325 0.224-0.106 0.42-0.271 0.42-0.354 0-0.073 0.129-0.167 0.388-0.282 0.155-0.069 0.252-0.154 0.327-0.287 0.078-0.14 0.169-0.216 0.345-0.292 0.179-0.077 0.268-0.154 0.359-0.308 0.075-0.129 0.174-0.224 0.264-0.255 0.079-0.028 0.286-0.186 0.459-0.351 0.742-0.71 1.714-1.706 1.837-1.883 0.073-0.105 0.221-0.262 0.329-0.348 0.131-0.105 0.215-0.222 0.254-0.353 0.041-0.138 0.109-0.228 0.23-0.304 0.244-0.154 0.286-0.218 0.413-0.63 0.062-0.202 0.147-0.405 0.189-0.451 0.070-0.077 0.061-0.099-0.106-0.282-0.112-0.122-0.274-0.233-0.421-0.288-0.178-0.066-0.275-0.141-0.378-0.292-0.076-0.112-0.21-0.233-0.299-0.27-0.191-0.080-0.283-0.214-0.328-0.474-0.018-0.105-0.128-0.386-0.244-0.624-0.126-0.259-0.239-0.579-0.281-0.8-0.078-0.409-0.177-0.636-0.308-0.706-0.048-0.025-0.272-0.092-0.498-0.148l-0.412-0.101-0.397 0.209c-0.404 0.213-0.549 0.348-0.601 0.563-0.016 0.066-0.045 0.79-0.065 1.609-0.039 1.622-0.033 1.589-0.343 1.915-0.1 0.105-0.329 0.35-0.507 0.544s-0.379 0.38-0.445 0.414c-0.182 0.094-1.166 0.183-1.63 0.147-0.537-0.042-1.043-0.202-1.142-0.362-0.129-0.209-0.267-0.342-0.448-0.436-0.15-0.077-0.189-0.132-0.258-0.367-0.158-0.53-0.211-1.030-0.212-2.002-0.002-1.057 0.031-0.908-0.36-1.663-0.064-0.124-0.197-0.28-0.297-0.348-0.163-0.111-0.226-0.123-0.642-0.123-0.545 0-0.715 0.082-0.899 0.433-0.062 0.118-0.14 0.246-0.175 0.286-0.168 0.192-0.217 0.516-0.218 1.452-0.001 0.961-0.065 1.527-0.226 1.99-0.071 0.206-0.124 0.275-0.278 0.361-0.105 0.059-0.266 0.209-0.358 0.334-0.146 0.198-0.208 0.239-0.479 0.32-0.171 0.051-0.495 0.106-0.719 0.124-0.478 0.037-1.444-0.049-1.624-0.145-0.069-0.037-0.282-0.236-0.473-0.441s-0.42-0.45-0.509-0.542c-0.28-0.291-0.278-0.281-0.317-1.912-0.029-1.21-0.051-1.551-0.111-1.692-0.080-0.187-0.272-0.332-0.73-0.549-0.218-0.103-0.287-0.116-0.395-0.075-0.072 0.028-0.218 0.064-0.323 0.082-0.493 0.082-0.615 0.224-0.723 0.845-0.039 0.221-0.113 0.449-0.181 0.556-0.064 0.099-0.175 0.364-0.247 0.588-0.186 0.578-0.22 0.637-0.419 0.731-0.101 0.048-0.23 0.168-0.3 0.277-0.067 0.106-0.181 0.216-0.252 0.245-0.363 0.143-0.443 0.192-0.565 0.353-0.129 0.169-0.13 0.179-0.054 0.308 0.044 0.074 0.112 0.259 0.151 0.411 0.091 0.348 0.172 0.472 0.404 0.619 0.114 0.072 0.197 0.168 0.218 0.252 0.043 0.171 0.239 0.432 0.353 0.468 0.048 0.015 0.134 0.108 0.19 0.207s0.434 0.514 0.839 0.922c1.054 1.064 1.338 1.325 1.532 1.406 0.113 0.047 0.199 0.13 0.252 0.24 0.058 0.123 0.154 0.206 0.352 0.307 0.149 0.076 0.294 0.183 0.322 0.238 0.090 0.18 0.187 0.268 0.397 0.361 0.129 0.057 0.262 0.169 0.35 0.295 0.099 0.141 0.229 0.244 0.426 0.337 0.157 0.075 0.337 0.205 0.404 0.293 0.128 0.167 0.533 0.423 0.76 0.48 0.089 0.022 0.162 0.089 0.213 0.195 0.053 0.111 0.145 0.193 0.296 0.262 0.12 0.055 0.271 0.125 0.335 0.156s0.15 0.116 0.192 0.189c0.072 0.128 0.742 0.513 0.892 0.513 0.035 0 0.109 0.065 0.166 0.145 0.224 0.314 0.556 0.384 1.725 0.362 0.611-0.011 0.837-0.034 0.992-0.097zM11.053 12.938c0.438-0.412 0.447-0.424 0.491-0.707 0.025-0.158 0.046-0.633 0.046-1.055 0.001-0.939 0.078-1.863 0.169-2.041 0.069-0.134 0.475-0.539 1.015-1.015l0.298-0.262 0.523-0.033c0.617-0.039 1.372 0.007 1.545 0.094 0.068 0.034 0.209 0.144 0.314 0.245s0.354 0.335 0.552 0.521c0.198 0.186 0.378 0.38 0.399 0.431 0.098 0.231 0.16 0.939 0.166 1.867 0.007 1.279 0.046 1.493 0.309 1.734 0.109 0.1 0.312 0.288 0.451 0.418l0.253 0.237 0.319-0.059c0.481-0.089 0.785-0.355 0.927-0.813 0.052-0.167 0.125-0.372 0.162-0.455 0.048-0.108 0.075-0.424 0.091-1.086 0.023-0.976 0.022-0.969 0.331-1.98 0.093-0.305 0.114-0.334 0.32-0.439 0.121-0.062 0.317-0.212 0.434-0.332 0.136-0.14 0.292-0.244 0.431-0.288 0.343-0.108 1.048-0.139 1.636-0.072 0.532 0.061 0.585 0.084 0.69 0.3 0.027 0.056 0.144 0.15 0.259 0.209 0.278 0.14 0.373 0.232 0.405 0.389 0.033 0.165 0.206 0.387 0.342 0.439 0.12 0.045 0.191 0.354 0.247 1.066 0.037 0.475 0.124 0.662 0.365 0.785 0.087 0.044 0.259 0.175 0.384 0.29 0.332 0.308 0.394 0.292 0.9-0.221 0.262-0.266 0.434-0.481 0.45-0.563 0.136-0.701 0.179-1.821 0.123-3.201-0.047-1.147-0.104-1.397-0.404-1.75-0.056-0.066-0.14-0.271-0.186-0.455-0.116-0.461-0.241-0.701-0.428-0.821-0.105-0.068-0.181-0.17-0.225-0.303-0.042-0.126-0.145-0.27-0.276-0.386-0.115-0.101-0.271-0.27-0.347-0.374-0.091-0.125-0.211-0.218-0.353-0.272-0.154-0.059-0.232-0.123-0.274-0.223-0.064-0.155-0.173-0.224-0.596-0.372-0.156-0.055-0.351-0.165-0.433-0.245s-0.267-0.192-0.41-0.249c-0.237-0.094-0.372-0.105-1.514-0.123-1.293-0.021-1.97 0.027-2.226 0.16-0.073 0.038-0.178 0.133-0.235 0.212-0.074 0.104-0.178 0.166-0.375 0.222-0.335 0.095-0.563 0.229-0.752 0.44-0.079 0.088-0.258 0.236-0.397 0.329s-0.31 0.259-0.378 0.369c-0.174 0.28-1.246 1.324-1.451 1.414-0.251 0.109-1.928 0.108-2.136-0.001-0.202-0.107-1.226-1.118-1.41-1.392-0.085-0.127-0.278-0.313-0.438-0.421-0.157-0.107-0.32-0.246-0.362-0.31-0.1-0.152-0.425-0.34-0.716-0.413-0.167-0.042-0.29-0.117-0.431-0.262-0.307-0.316-0.401-0.331-2.132-0.331-1.697-0-1.855 0.024-2.208 0.344-0.1 0.090-0.306 0.208-0.459 0.262-0.417 0.147-0.526 0.215-0.591 0.372-0.037 0.089-0.115 0.162-0.206 0.194-0.214 0.074-0.452 0.27-0.483 0.397-0.015 0.061-0.088 0.146-0.161 0.189-0.199 0.118-0.324 0.277-0.417 0.531-0.046 0.125-0.112 0.228-0.147 0.228-0.14 0-0.347 0.325-0.45 0.704-0.057 0.21-0.103 0.402-0.103 0.429s-0.064 0.109-0.143 0.184c-0.306 0.293-0.381 0.818-0.383 2.662-0.001 1.411 0.052 2.128 0.176 2.368 0.124 0.239 0.813 0.892 0.943 0.892 0.068 0 0.21-0.085 0.348-0.208 0.128-0.114 0.297-0.239 0.375-0.276 0.246-0.117 0.346-0.326 0.382-0.797 0.058-0.754 0.113-0.953 0.303-1.098 0.092-0.070 0.211-0.227 0.264-0.349 0.118-0.271 0.217-0.389 0.326-0.389 0.091 0 0.315-0.196 0.431-0.377 0.102-0.159 0.656-0.246 1.422-0.222 0.777 0.024 0.928 0.070 1.256 0.381 0.147 0.14 0.358 0.299 0.467 0.354 0.178 0.090 0.211 0.134 0.305 0.418 0.245 0.737 0.315 1.211 0.329 2.225 0.008 0.569 0.026 0.729 0.101 0.887 0.050 0.106 0.124 0.313 0.164 0.46 0.126 0.458 0.581 0.797 1.082 0.807 0.147 0.003 0.224-0.050 0.614-0.416z"></path>
</symbol>
<symbol id="icon-milk" viewBox="0 0 21 32">
<path d="M3.835 31.672c-0.108-0.046-0.243-0.138-0.299-0.206-0.060-0.072-0.584-2.939-1.262-6.898-0.902-5.27-1.211-6.918-1.388-7.417-0.325-0.918-0.449-1.512-0.504-2.419-0.054-0.895-0.009-1.049 0.374-1.283 0.235-0.143 0.468-0.147 9.81-0.147 10.364-0 9.834-0.021 10.124 0.393 0.245 0.349 0.082 1.949-0.331 3.248-0.127 0.399-0.775 3.577-1.512 7.415-0.71 3.694-1.328 6.812-1.373 6.928-0.173 0.439 0.075 0.423-6.969 0.446-4.572 0.015-6.531-0.003-6.67-0.061zM16.971 25.528c0.486-2.511 0.887-4.61 0.889-4.664s-0.225 0.085-0.505 0.309c-0.758 0.605-1.132 0.841-1.994 1.263-0.87 0.425-1.873 0.756-2.893 0.952-0.944 0.182-2.841 0.178-3.811-0.007-1.853-0.354-3.542-1.131-4.947-2.275-0.227-0.185-0.412-0.297-0.412-0.249 0 0.093 1.485 8.821 1.55 9.105l0.038 0.17 11.2-0.039zM12.127 21.789c2.568-0.416 4.894-1.964 6.101-4.058 0.389-0.676 0.917-2.21 0.919-2.674 0-0.075-1.763-0.094-8.566-0.094-7.208 0-8.566 0.016-8.566 0.104 0 0.057 0.082 0.428 0.183 0.825 0.758 2.987 3.466 5.338 6.793 5.898 0.834 0.14 2.274 0.141 3.135 0.001z"></path>
<path d="M10.133 11.845c-0.83-0.163-1.578-0.843-1.837-1.67-0.102-0.325-0.119-0.498-0.118-1.195l0.001-0.815-0.215-0.055c-0.405-0.104-1.221-0.385-1.544-0.531l-0.323-0.147-0.344 0.286c-0.189 0.157-0.471 0.346-0.626 0.419-1.455 0.689-3.177-0.237-3.444-1.851-0.114-0.688 0.122-1.45 0.62-2.001l0.253-0.28-0.137-0.36c-0.288-0.756-0.366-1.166-0.373-1.965-0.006-0.738-0.004-0.754 0.137-0.94 0.079-0.104 0.235-0.234 0.347-0.29 0.196-0.097 0.488-0.102 7.915-0.128 4.241-0.015 7.796-0.007 7.898 0.018 0.279 0.067 0.515 0.321 0.59 0.637 0.129 0.537-0.028 1.699-0.35 2.589l-0.14 0.389 0.243 0.236c0.883 0.858 1.027 2.149 0.353 3.159-0.369 0.552-0.958 0.923-1.646 1.036-0.739 0.122-1.432-0.101-2.083-0.671-0.185-0.162-0.356-0.295-0.38-0.295s-0.208 0.076-0.41 0.168c-0.202 0.093-0.608 0.247-0.901 0.343l-0.534 0.175-0.029 0.951c-0.033 1.079-0.1 1.336-0.481 1.843-0.581 0.774-1.502 1.13-2.442 0.945zM10.974 10.154c0.101-0.051 0.233-0.161 0.294-0.244 0.104-0.142 0.112-0.24 0.137-1.677l0.027-1.526 0.56-0.094c0.992-0.167 2.091-0.593 2.935-1.136l0.293-0.189 0.67 0.672c0.369 0.369 0.729 0.704 0.8 0.744 0.308 0.171 0.779 0.032 0.996-0.292 0.133-0.2 0.163-0.57 0.062-0.769-0.033-0.064-0.36-0.42-0.727-0.791l-0.668-0.675 0.17-0.246c0.268-0.389 0.529-0.984 0.654-1.489 0.063-0.256 0.103-0.477 0.088-0.491s-3.068-0.011-6.786 0.009c-5.998 0.032-6.76 0.045-6.76 0.117 0 0.381 0.374 1.327 0.737 1.86l0.216 0.318-0.663 0.662c-0.703 0.701-0.766 0.81-0.693 1.198 0.046 0.245 0.345 0.544 0.59 0.59 0.413 0.077 0.542 0.006 1.255-0.697l0.667-0.658 0.513 0.305c0.844 0.502 1.793 0.832 2.869 0.997l0.594 0.091 0.006 1.1c0.009 1.596 0.029 1.877 0.145 2.034 0.261 0.353 0.661 0.463 1.019 0.28z"></path>
</symbol>
</defs>
</svg>
